<svg xmlns="http://www.w3.org/2000/svg" width="24" height="24" viewBox="0 0 24 24">
  <path fill="#000000" d="M7.3 10.5V7.5C7.3 4.5 8.9 2.7 12 2.7C15.1 2.7 16.7 4.5 16.7 7.5V10.5H14.9V7.5C14.9 5.5 13.95 4.5 12 4.5C10.05 4.5 9.1 5.5 9.1 7.5V10.5Z"/>
  <path fill="#000000" d="M7.5 10H16.5C18.5 10 19.5 11 19.5 13V18C19.5 20 18.5 21 16.5 21H7.5C5.5 21 4.5 20 4.5 18V13C4.5 11 5.5 10 7.5 10ZM7.5 11.8C6.65 11.8 6.3 12.15 6.3 13V18C6.3 18.85 6.65 19.2 7.5 19.2H16.5C17.35 19.2 17.7 18.85 17.7 18V13C17.7 12.15 17.35 11.8 16.5 11.8Z"/>
  <path fill="#000000" d="M11.1 14.7C11.1 14.2 11.5 13.8 12 13.8C12.5 13.8 12.9 14.2 12.9 14.7V16.7C12.9 17.2 12.5 17.6 12 17.6C11.5 17.6 11.1 17.2 11.1 16.7Z"/>
</svg>
